<?xml version="1.0" encoding="utf-8"?><svg xmlns="http://www.w3.org/2000/svg" xmlns:xlink="http://www.w3.org/1999/xlink"><symbol viewBox="0 0 64 64" id="cancel" xmlns="http://www.w3.org/2000/svg"><path d="M28.941 31.786L.613 60.114a2.014 2.014 0 1 0 2.848 2.849l28.541-28.541 28.541 28.541c.394.394.909.59 1.424.59a2.014 2.014 0 0 0 1.424-3.439L35.064 31.786 63.41 3.438A2.014 2.014 0 1 0 60.562.589L32.003 29.15 3.441.59A2.015 2.015 0 0 0 .593 3.439l28.348 28.347z"/></symbol><symbol viewBox="0 0 86.001 86.001" id="chevron-left" xmlns="http://www.w3.org/2000/svg"><path d="M64.998 80.095a3.484 3.484 0 0 1 0 4.893 3.401 3.401 0 0 1-4.844 0l-39.151-39.54a3.486 3.486 0 0 1 0-4.895l39.15-39.539a3.4 3.4 0 0 1 4.844 0A3.487 3.487 0 0 1 65 5.907L29.294 43.001l35.704 37.094z"/></symbol><symbol viewBox="0 0 238.003 238.003" id="chevron-right" xmlns="http://www.w3.org/2000/svg"><path d="M181.776 107.719L78.705 4.648c-6.198-6.198-16.273-6.198-22.47 0s-6.198 16.273 0 22.47l91.883 91.883-91.883 91.883c-6.198 6.198-6.198 16.273 0 22.47s16.273 6.198 22.47 0l103.071-103.039a15.741 15.741 0 0 0 4.64-11.283c0-4.13-1.526-8.199-4.64-11.313z"/></symbol><symbol viewBox="0 0 408.788 408.788" id="facebook" xmlns="http://www.w3.org/2000/svg"><path d="M353.701 0H55.087C24.665 0 .002 24.662.002 55.085v298.616c0 30.423 24.662 55.085 55.085 55.085h147.275l.251-146.078h-37.951a8.954 8.954 0 0 1-8.954-8.92l-.182-47.087a8.955 8.955 0 0 1 8.955-8.989h37.882v-45.498c0-52.8 32.247-81.55 79.348-81.55h38.65a8.955 8.955 0 0 1 8.955 8.955v39.704a8.955 8.955 0 0 1-8.95 8.955l-23.719.011c-25.615 0-30.575 12.172-30.575 30.035v39.389h56.285c5.363 0 9.524 4.683 8.892 10.009l-5.581 47.087a8.955 8.955 0 0 1-8.892 7.901h-50.453l-.251 146.078h87.631c30.422 0 55.084-24.662 55.084-55.084V55.085C408.786 24.662 384.124 0 353.701 0z"/></symbol><symbol viewBox="0 0 551.034 551.034" id="instagram" xmlns="http://www.w3.org/2000/svg"><path d="M386.878 0H164.156C73.64 0 0 73.64 0 164.156v222.722c0 90.516 73.64 164.156 164.156 164.156h222.722c90.516 0 164.156-73.64 164.156-164.156V164.156C551.033 73.64 477.393 0 386.878 0zM495.6 386.878c0 60.045-48.677 108.722-108.722 108.722H164.156c-60.045 0-108.722-48.677-108.722-108.722V164.156c0-60.046 48.677-108.722 108.722-108.722h222.722c60.045 0 108.722 48.676 108.722 108.722v222.722z"/><path d="M275.517 133C196.933 133 133 196.933 133 275.516s63.933 142.517 142.517 142.517S418.034 354.1 418.034 275.516 354.101 133 275.517 133zm0 229.6c-48.095 0-87.083-38.988-87.083-87.083s38.989-87.083 87.083-87.083c48.095 0 87.083 38.988 87.083 87.083 0 48.094-38.989 87.083-87.083 87.083z"/><circle cx="418.31" cy="134.07" r="34.15"/></symbol><symbol viewBox="0 0 54.757 54.757" id="location" xmlns="http://www.w3.org/2000/svg"><path d="M27.557 12c-3.859 0-7 3.141-7 7s3.141 7 7 7 7-3.141 7-7-3.141-7-7-7zm0 12c-2.757 0-5-2.243-5-5s2.243-5 5-5 5 2.243 5 5-2.243 5-5 5z"/><path d="M40.94 5.617A19.052 19.052 0 0 0 27.38 0a19.05 19.05 0 0 0-13.56 5.617c-6.703 6.702-7.536 19.312-1.804 26.952L27.38 54.757 42.721 32.6c5.755-7.671 4.922-20.281-1.781-26.983zm.159 25.814L27.38 51.243 13.639 31.4C8.44 24.468 9.185 13.08 15.235 7.031 18.479 3.787 22.792 2 27.38 2s8.901 1.787 12.146 5.031c6.05 6.049 6.795 17.437 1.573 24.4z"/></symbol><symbol viewBox="0 0 512 512" id="medal" xmlns="http://www.w3.org/2000/svg"><path d="M373.44 318.229c.981-2.304 2.027-4.331 3.243-5.547 2.88-2.859 9.643-4.907 16.192-6.891 10.88-3.307 23.232-7.04 29.44-17.771 6.123-10.581 3.221-23.04.683-34.027-1.579-6.741-3.2-13.717-2.091-17.792.96-3.733 5.931-9.003 10.304-13.653C439.083 214.165 448 204.672 448 192s-8.917-22.165-16.789-30.549c-4.373-4.651-9.323-9.92-10.304-13.632-1.088-4.075.533-11.072 2.091-17.813 2.539-10.987 5.44-23.445-.683-34.048-6.208-10.731-18.539-14.464-29.44-17.749-6.549-1.984-13.291-4.032-16.171-6.891-2.88-2.859-4.907-9.621-6.891-16.171-3.285-10.88-7.019-23.211-17.749-29.419-10.645-6.165-23.061-3.264-34.069-.704-6.741 1.557-13.696 3.179-17.792 2.091-3.733-1.003-9.003-5.952-13.653-10.325C278.166 8.917 268.672 0 256 0c-12.651 0-22.144 8.917-30.528 16.789-4.672 4.373-9.941 9.323-13.675 10.325-4.096 1.109-11.072-.533-17.792-2.091-11.029-2.56-23.467-5.44-34.069.683-10.709 6.208-14.443 18.539-17.728 29.44-1.984 6.549-4.032 13.312-6.891 16.171-2.88 2.859-9.643 4.907-16.192 6.891-10.88 3.307-23.232 7.04-29.44 17.771-6.123 10.581-3.221 23.04-.683 34.027 1.579 6.741 3.2 13.717 2.091 17.792-.96 3.733-5.931 9.003-10.304 13.653C72.918 169.835 64 179.349 64 192s8.917 22.165 16.789 30.549c4.373 4.651 9.323 9.92 10.304 13.632 1.088 4.075-.533 11.072-2.091 17.813-2.539 10.987-5.44 23.445.683 34.048 6.208 10.731 18.539 14.464 29.44 17.749 6.549 1.984 13.291 4.032 16.171 6.891 1.216 1.216 2.261 3.221 3.243 5.525L64.811 497.259a10.678 10.678 0 0 0 2.581 11.883 10.69 10.69 0 0 0 7.275 2.859c1.621 0 3.243-.363 4.779-1.152l79.787-39.893 58.859 39.232c2.709 1.792 6.101 2.24 9.195 1.28a10.62 10.62 0 0 0 6.699-6.4l23.296-62.123 20.587 61.76a10.772 10.772 0 0 0 6.677 6.72 10.645 10.645 0 0 0 9.365-1.216l58.859-39.232 79.787 39.893a10.674 10.674 0 0 0 12.032-1.706 10.675 10.675 0 0 0 2.581-11.883l-73.73-179.052zm-127.424 93.995l-27.285 72.747-52.821-35.2c-3.221-2.112-7.296-2.389-10.688-.661L95.36 479.04l54.229-131.733c2.56 4.352 5.717 8.277 10.347 10.965 10.645 6.165 23.083 3.264 34.069.704 6.72-1.557 13.675-3.221 17.792-2.091 3.733 1.003 9.003 5.952 13.653 10.325 3.008 2.816 6.229 5.653 9.6 8.277.085.405.021.811.149 1.216l11.477 34.453c-.19.385-.51.663-.66 1.068zm9.963-49.557c-4.203 0-10.432-5.845-15.936-11.008-6.784-6.4-13.824-12.992-22.741-15.381-2.88-.768-5.781-1.088-8.704-1.088-6.464 0-13.013 1.536-19.392 3.008-6.827 1.6-15.275 3.563-18.56 1.621-3.435-1.984-5.867-10.027-8.021-17.131-2.731-9.067-5.547-18.432-12.224-25.088-6.656-6.656-16.021-9.493-25.088-12.224-7.104-2.133-15.147-4.565-17.152-8-1.899-3.307.064-11.755 1.643-18.56 2.155-9.301 4.373-18.901 1.92-28.139-2.411-8.917-9.003-15.936-15.381-22.741-5.184-5.504-11.029-11.733-11.029-15.936s5.867-10.432 11.029-15.936c6.379-6.784 12.992-13.824 15.381-22.741 2.453-9.216.235-18.816-1.92-28.117-1.579-6.805-3.541-15.253-1.643-18.539 2.005-3.435 10.048-5.867 17.173-8.021 9.067-2.731 18.411-5.568 25.088-12.224 6.635-6.635 9.472-16.021 12.224-25.067 2.155-7.104 4.587-15.168 8-17.152 3.349-1.877 11.776.064 18.539 1.643 9.259 2.155 18.837 4.395 28.117 1.92 8.917-2.389 15.957-9.003 22.763-15.381 5.483-5.163 11.712-11.008 15.915-11.008 4.203 0 10.432 5.845 15.936 11.008 6.784 6.4 13.824 12.992 22.741 15.381 9.259 2.475 18.859.235 28.096-1.92 6.805-1.6 15.275-3.541 18.56-1.621 3.435 1.984 5.867 10.027 8.021 17.131 2.731 9.067 5.547 18.432 12.224 25.088 6.656 6.656 16.021 9.493 25.088 12.224 7.104 2.133 15.147 4.565 17.152 8 1.899 3.307-.064 11.755-1.643 18.56-2.155 9.301-4.373 18.901-1.92 28.139 2.411 8.917 9.003 15.936 15.381 22.741 5.184 5.504 11.029 11.733 11.029 15.936s-5.867 10.432-11.029 15.936c-6.379 6.784-12.992 13.824-15.381 22.741-2.453 9.216-.235 18.816 1.92 28.117 1.579 6.805 3.541 15.253 1.643 18.539-2.005 3.435-10.048 5.867-17.173 8.021-9.067 2.731-18.411 5.568-25.088 12.224-6.635 6.635-9.472 16.021-12.224 25.067-2.155 7.104-4.587 15.168-8 17.152-3.285 1.899-11.755-.064-18.539-1.643-9.259-2.155-18.837-4.395-28.117-1.92-8.917 2.389-15.957 9.003-22.763 15.381-5.483 5.162-11.712 11.008-15.915 11.008zm100.779 86.464a10.607 10.607 0 0 0-10.688.661l-52.373 34.923-33.792-101.376c10.667-1.621 19.157-9.109 26.624-16.128 4.672-4.373 9.941-9.323 13.675-10.325 4.117-1.088 11.072.533 17.792 2.091 11.029 2.56 23.467 5.44 34.069-.683 4.608-2.667 7.765-6.613 10.325-10.965l54.229 131.733-59.861-29.931z"/><path d="M384 192c0-70.592-57.408-128-128-128s-128 57.408-128 128 57.408 128 128 128 128-57.408 128-128zM256 298.667c-58.816 0-106.667-47.851-106.667-106.667S197.184 85.333 256 85.333 362.667 133.184 362.667 192 314.816 298.667 256 298.667z"/></symbol><symbol viewBox="0 0 48 48" id="odnokl" xmlns="http://www.w3.org/2000/svg"><path d="M42 37c0 2.8-2.2 5-5 5H11c-2.8 0-5-2.2-5-5V11c0-2.8 2.2-5 5-5h26c2.8 0 5 2.2 5 5z"/><path d="M26.898 30.398c1.5-.296 2.903-.898 4.102-1.699 1-.597 1.3-1.898.7-2.898-.598-1-1.9-1.301-2.9-.7-2.902 1.797-6.698 1.797-9.6 0-1-.601-2.302-.3-2.9.7-.6 1-.3 2.3.7 2.898 1.3.801 2.7 1.403 4.102 1.7l-4 4c-.801.8-.801 2.101 0 3 .398.402.898.601 1.5.601.5 0 1.097-.2 1.5-.602L24 33.5l3.898 3.898c.801.801 2.102.801 3 0 .801-.796.801-2.097 0-3l-4-4zM24 10c-3.898 0-7 3.102-7 7s3.102 7 7 7 7-3.102 7-7-3.102-7-7-7zm0 10c-1.7 0-3-1.3-3-3s1.3-3 3-3 3 1.3 3 3-1.3 3-3 3z"/></symbol><symbol viewBox="0 0 451 451" id="search" xmlns="http://www.w3.org/2000/svg"><path d="M447.05 428l-109.6-109.6c29.4-33.8 47.2-77.9 47.2-126.1C384.65 86.2 298.35 0 192.35 0 86.25 0 .05 86.3.05 192.3s86.3 192.3 192.3 192.3c48.2 0 92.3-17.8 126.1-47.2L428.05 447c2.6 2.6 6.1 4 9.5 4s6.9-1.3 9.5-4c5.2-5.2 5.2-13.8 0-19zM26.95 192.3c0-91.2 74.2-165.3 165.3-165.3 91.2 0 165.3 74.2 165.3 165.3s-74.1 165.4-165.3 165.4c-91.1 0-165.3-74.2-165.3-165.4z"/></symbol><symbol viewBox="0 0 321.2 321.2" id="shopping-bag" xmlns="http://www.w3.org/2000/svg"><path d="M306.4 313.2l-24-223.6c-.4-3.6-3.6-6.4-7.2-6.4h-44.4V69.6c0-38.4-31.2-69.6-69.6-69.6-38.4 0-69.6 31.2-69.6 69.6v13.6H46c-3.6 0-6.8 2.8-7.2 6.4l-24 223.6c-.4 2 .4 4 1.6 5.6 1.2 1.6 3.2 2.4 5.2 2.4h278c2 0 4-.8 5.2-2.4 1.2-1.6 2-3.6 1.6-5.6zm-82.8-189.6c3.6 0 6.4 2.8 6.4 6.4 0 3.6-2.8 6.4-6.4 6.4-3.6 0-6.4-2.8-6.4-6.4 0-3.6 2.8-6.4 6.4-6.4zM106 69.6c0-30.4 24.8-55.2 55.2-55.2 30.4 0 55.2 24.8 55.2 55.2v13.6H106V69.6zm-7.2 54c3.6 0 6.4 2.8 6.4 6.4 0 3.6-2.8 6.4-6.4 6.4-3.6 0-6.4-2.8-6.4-6.4 0-3.6 2.8-6.4 6.4-6.4zM30 306.4L52.4 97.2h39.2v13.2c-8 2.8-13.6 10.4-13.6 19.2 0 11.2 9.2 20.4 20.4 20.4s20.4-9.2 20.4-20.4c0-8.8-5.6-16.4-13.6-19.2V97.2h110.4v13.2c-8 2.8-13.6 10.4-13.6 19.2 0 11.2 9.2 20.4 20.4 20.4s20.4-9.2 20.4-20.4c0-8.8-5.6-16.4-13.6-19.2V97.2H270l22.4 209.2H30z"/></symbol><symbol viewBox="0 0 486.569 486.569" id="shopping-cart" xmlns="http://www.w3.org/2000/svg"><path d="M146.069 320.369h268.1c30.4 0 55.2-24.8 55.2-55.2v-114c0-.2 0-.4-.1-.6 0-.2-.1-.5-.1-.7s-.1-.4-.1-.6c-.1-.2-.1-.4-.2-.7-.1-.2-.1-.4-.2-.6-.1-.2-.1-.4-.2-.6-.1-.2-.2-.4-.3-.7-.1-.2-.2-.4-.3-.5l-.3-.6c-.1-.2-.2-.3-.3-.5-.1-.2-.3-.4-.4-.6-.1-.2-.2-.3-.4-.5-.1-.2-.3-.3-.4-.5s-.3-.3-.4-.5-.3-.3-.4-.4l-.5-.5c-.2-.1-.3-.3-.5-.4-.2-.1-.4-.3-.6-.4-.2-.1-.3-.2-.5-.3s-.4-.2-.6-.4l-.6-.3-.6-.3-.6-.3c-.2-.1-.4-.1-.6-.2-.2-.1-.5-.2-.7-.2s-.4-.1-.5-.1c-.3-.1-.5-.1-.8-.1-.1 0-.2-.1-.4-.1l-339.8-46.9v-47.4c0-.5 0-1-.1-1.4 0-.1 0-.2-.1-.4 0-.3-.1-.6-.1-.9-.1-.3-.1-.5-.2-.8 0-.2-.1-.3-.1-.5l-.3-.9c0-.1-.1-.3-.1-.4-.1-.3-.2-.5-.4-.8-.1-.1-.1-.3-.2-.4-.1-.2-.2-.4-.4-.6-.1-.2-.2-.3-.3-.5s-.2-.3-.3-.5-.3-.4-.4-.6l-.3-.3-.6-.6-.3-.3c-.2-.2-.4-.4-.7-.6-.1-.1-.3-.2-.4-.3-.2-.2-.4-.3-.6-.5-.3-.2-.6-.4-.8-.5-.1-.1-.2-.1-.3-.2-.4-.2-.9-.4-1.3-.6l-73.7-31c-6.9-2.9-14.8.3-17.7 7.2s.3 14.8 7.2 17.7l65.4 27.6v295.8c0 28 21 51.2 48.1 54.7-4.9 8.2-7.8 17.8-7.8 28 0 30.1 24.5 54.5 54.5 54.5s54.5-24.5 54.5-54.5c0-10-2.7-19.5-7.5-27.5h121.4c-4.8 8.1-7.5 17.5-7.5 27.5 0 30.1 24.5 54.5 54.5 54.5s54.5-24.5 54.5-54.5-24.5-54.5-54.5-54.5h-255c-15.6 0-28.2-12.7-28.2-28.2v-36.6c8.2 4.8 17.9 7.6 28.2 7.6zm67.2 111.6c0 15.2-12.4 27.5-27.5 27.5s-27.5-12.4-27.5-27.5 12.4-27.5 27.5-27.5 27.5 12.3 27.5 27.5zm215.4 0c0 15.2-12.4 27.5-27.5 27.5s-27.5-12.4-27.5-27.5 12.4-27.5 27.5-27.5 27.5 12.3 27.5 27.5zm-14.5-138.6h-268.1c-15.6 0-28.2-12.7-28.2-28.2v-145.9l324.5 44.7v101.1c0 15.7-12.7 28.3-28.2 28.3z"/></symbol><symbol viewBox="0 0 455.731 455.731" id="vk" xmlns="http://www.w3.org/2000/svg"><path d="M0 0h455.731v455.731H0z"/><path d="M118.06 138.69c10.922 26.972 24.764 52.402 42.995 75.231 2.418 3.038 5.466 5.739 8.677 7.938 4.69 3.221 9.115 2.089 11.022-3.276 2.017-5.63 3.868-17.04 3.978-22.952.301-15.448-.045-25.572-.875-41.001-.538-9.882-4.051-18.559-18.587-21.178-4.489-.812-4.906-4.507-2.022-8.193 6.004-7.674 14.368-8.897 23.438-9.381 14.7-.794 29.454-.146 44.172 0 5.995.055 12.026.538 17.93 1.825 7.701 1.679 11.825 7.081 13.094 14.599.657 3.878.995 7.865.903 11.789-.383 16.862-1.195 33.715-1.387 50.568-.082 6.615.401 13.395 1.816 19.837 1.98 8.978 8.093 11.232 14.344 4.745 7.938-8.239 14.937-17.51 21.506-26.926 11.935-17.127 20.849-35.923 28.523-55.303 3.969-10 7.008-12.172 17.765-12.199 20.22-.046 40.44-.064 60.66 0 3.586.018 7.336.356 10.721 1.433 5.493 1.752 7.674 6.232 6.387 11.917-3.002 13.322-10.201 24.645-17.911 35.531-12.373 17.464-25.339 34.509-38.003 51.772-1.615 2.199-3.038 4.544-4.362 6.925-4.736 8.559-4.407 13.358 2.5 20.484 10.995 11.342 22.766 21.953 33.414 33.605 7.738 8.477 14.9 17.674 21.032 27.355 7.756 12.245 2.965 23.778-11.524 25.831-9.115 1.287-53.641.01-55.942 0-11.971-.054-22.464-4.206-30.914-12.336-9.398-9.051-17.939-18.979-26.963-28.423-2.719-2.847-5.621-5.575-8.75-7.957-7.382-5.63-14.627-4.38-18.076 4.289-2.947 7.446-5.493 26.999-5.612 28.669-.62 8.732-6.177 14.298-15.959 14.836-28.24 1.533-55.605-1.615-81.098-15.274-21.607-11.57-38.861-27.93-53.807-47.009-23.742-30.304-42.495-63.615-59.616-97.904-.875-1.753-18.216-38.653-18.682-40.396-1.549-5.836-.104-11.411 4.827-13.33 3.074-1.196 60.248-.004 61.199.047 9.123.494 15.344 4.343 19.187 13.812z"/></symbol><symbol viewBox="0 0 487.6 487.6" id="wallet" xmlns="http://www.w3.org/2000/svg"><path d="M460.3 216.55h-11.6v-69.7c0-28.5-23.2-51.6-51.6-51.6h-10.7l.1-25.9c0-19.2-15.6-34.8-34.8-34.8H42.3c-23.1 0-42 18.6-42.3 41.7v342c0 19.2 15.6 34.8 34.8 34.8h362.4c28.5 0 51.6-23.2 51.6-51.6v-69.8h11.6c15 0 27.2-12.2 27.2-27.2v-60.7c-.1-15-12.3-27.2-27.3-27.2zm-418-158h309.4c5.9 0 10.8 4.8 10.8 10.7l-.1 26H42.3c-10.1 0-18.3-8.2-18.3-18.3s8.2-18.4 18.3-18.4zm382.4 342.8c0 15.2-12.4 27.6-27.6 27.6H34.7c-5.9 0-10.8-4.8-10.8-10.8v-303.1c5.6 2.7 11.8 4.2 18.4 4.2h354.8c15.2 0 27.6 12.4 27.6 27.6v69.7h-81.9c-15 0-27.2 12.2-27.2 27.2v60.7c0 15 12.2 27.2 27.2 27.2h81.9v69.7zm38.8-96.9c0 1.8-1.4 3.2-3.2 3.2H342.9c-1.8 0-3.2-1.4-3.2-3.2v-60.7c0-1.7 1.4-3.2 3.2-3.2h117.4c1.7 0 3.2 1.4 3.2 3.2v60.7z"/></symbol><symbol viewBox="0 0 141 29" id="ya-market" xmlns="http://www.w3.org/2000/svg"><path d="M9.33 2.145H7.72c-.497 0-.977.103-1.442.31-.466.207-.88.537-1.24.992-.362.455-.65 1.038-.87 1.752-.216.712-.324 1.564-.324 2.556 0 .97.12 1.793.357 2.464.238.672.553 1.225.946 1.66.393.433.837.748 1.333.944a4.155 4.155 0 0 0 1.55.295h1.3V2.144zM3.13 24H.31l5.022-9.27c-1.467-.702-2.516-1.637-3.146-2.805-.63-1.167-.946-2.557-.946-4.17 0-1.24.176-2.334.527-3.285.35-.95.827-1.75 1.426-2.402A5.893 5.893 0 0 1 5.285.595 6.537 6.537 0 0 1 7.813.1h3.968V24H9.33v-8.866H7.72L3.13 24z"/><path fill-rule="evenodd" d="M36.3 27.1h-2.2v-3.13h-6.85v3.13h-2.202v-5.146h.96c.497-.93.884-1.932 1.164-3.007.28-1.075.49-2.16.635-3.255.145-1.095.232-2.18.264-3.255.032-1.075.047-2.098.047-3.07V8.005h6.944v13.95h1.24V27.1zm10.727-3.844c-.517.29-1.09.542-1.72.76-.63.217-1.34.325-2.124.325-1.612 0-2.904-.67-3.875-2.014-.97-1.343-1.457-3.234-1.457-5.673 0-1.178.1-2.31.295-3.394.197-1.087.496-2.047.9-2.884.403-.838.914-1.51 1.534-2.015.62-.506 1.363-.76 2.23-.76 1.282 0 2.316.642 3.1 1.923.786 1.28 1.18 3.172 1.18 5.673v1.364h-6.666c0 1.736.294 3.09.883 4.06.59.972 1.514 1.458 2.775 1.458.475 0 .966-.067 1.472-.2a9.055 9.055 0 0 0 1.194-.39l.28 1.768zm-4.31-13.67c-.35 0-.66.123-.93.37-.268.25-.495.595-.68 1.04a7.181 7.181 0 0 0-.435 1.565c-.103.6-.176 1.25-.217 1.954h4.092v-.34a4.28 4.28 0 0 0-.015-.342 5.004 5.004 0 0 1-.016-.403c-.083-1.22-.28-2.166-.59-2.838-.31-.67-.712-1.007-1.208-1.007zm-10.105.402v11.966H28.18c.412-.682.753-1.488 1.022-2.418.27-.93.486-1.917.65-2.96.166-1.044.28-2.108.342-3.194.062-1.085.093-2.113.093-3.084v-.31h2.325zm-8.99-1.984V23.97h-2.45v-7.627h-3.657v7.626h-2.48V8.003h2.48v6.293h3.658V8.004h2.45zM58.87 23.97h-2.76l-3.813-7.875-.28-.34v8.214h-2.48V8.003h2.48v7.254l.28-.31 3.38-6.944h2.634l-3.905 7.192 4.464 8.773zm3.192-7.937c0 1.88.29 3.358.868 4.433.58 1.075 1.467 1.612 2.666 1.612.455 0 .92-.067 1.395-.2.476-.136.86-.265 1.148-.39l.248 1.768a9.148 9.148 0 0 1-1.596.76c-.59.217-1.256.325-2 .325-1.59 0-2.878-.66-3.86-1.983-.98-1.323-1.472-3.224-1.472-5.704 0-1.364.14-2.604.42-3.72.278-1.116.655-2.067 1.13-2.852.475-.784 1.044-1.394 1.705-1.828a3.821 3.821 0 0 1 2.14-.65c.68 0 1.296.092 1.844.278a5.638 5.638 0 0 1 1.472.744l-1.272 2.14a4.413 4.413 0 0 0-.977-.838 2.04 2.04 0 0 0-1.1-.34c-.433 0-.826.185-1.177.557-.35.372-.64.858-.868 1.457a10.53 10.53 0 0 0-.527 2.062 14.978 14.978 0 0 0-.186 2.37zm17.03 4.228h1.206l3.31-12.308c.246-.928.463-1.825.74-3.062h.125c-.062 1.114-.124 2.227-.124 3.28v15.493h1.484V1.55h-1.732L80.33 15.684a25.81 25.81 0 0 0-.527 2.567h-.093a21.759 21.759 0 0 0-.464-2.566L75.504 1.55H73.71v22.113h1.36V8.17c0-1.115-.03-2.228-.092-3.28h.093c.186 1.02.434 2.01.743 3.155L79.09 20.26zm13.298 2.537c1.454 0 2.475-1.39 3.03-3.062v-4.298h-1.67c-2.566 0-3.803 1.175-3.803 3.896 0 2.196.96 3.464 2.443 3.464zm3.464.866c-.124-.402-.278-.99-.37-2.103-.743 1.485-1.857 2.413-3.403 2.413-2.102 0-3.556-1.67-3.556-4.516 0-3.34 1.825-5.072 5.196-5.072h1.7v-1.948c0-2.382-.896-3.403-2.597-3.403-1.33 0-2.536.62-3.278 1.702l-.402-1.392c.618-.804 1.917-1.578 3.68-1.578 2.567 0 4.02 1.423 4.02 4.516v8.505c0 1.082.156 2.29.34 2.876h-1.33zm8.66-.866c1.98 0 3.278-2.35 3.278-7.268 0-4.083-1.113-6.496-2.907-6.496-1.392 0-2.567 1.485-3.247 3.155v8.72c.618 1.27 1.484 1.887 2.876 1.887zm-.093 1.145a3.532 3.532 0 0 1-2.782-1.36v5.906h-1.454V8.076h1.268l.124 2.567c.68-1.485 1.825-2.877 3.556-2.877 2.598 0 4.114 3.124 4.114 7.64 0 5.72-1.918 8.536-4.825 8.536zm9.063-8.35l5.412 8.07h1.61l-5.507-8.35 5.134-7.236h-1.422l-5.227 7.33v-7.33h-1.454v15.587h1.453V15.59zm16.144 5.442zm0 0l.464 1.176s-1.174 1.763-3.648 1.763c-3.31 0-4.825-3-4.825-8.104 0-5.104 1.917-8.104 4.546-8.104 2.69 0 4.423 2.815 3.928 8.35h-7.05c.06 4.27 1.175 6.59 3.433 6.59 2.07 0 3.153-1.67 3.154-1.672zm-3.464-12.06c-1.64 0-2.97 2.102-3.092 6h5.66c.248-4.146-.99-6-2.567-6zm14.227.308V8.076h-8.66v1.206h3.62v14.38h1.452V9.283h3.588z"/></symbol></svg>