<?xml version="1.0" encoding="utf-8"?><svg xmlns="http://www.w3.org/2000/svg" xmlns:xlink="http://www.w3.org/1999/xlink"><symbol viewBox="0 0 64 64" id="cancel" xmlns="http://www.w3.org/2000/svg"><path d="M28.941 31.786L.613 60.114a2.014 2.014 0 1 0 2.848 2.849l28.541-28.541 28.541 28.541c.394.394.909.59 1.424.59a2.014 2.014 0 0 0 1.424-3.439L35.064 31.786 63.41 3.438A2.014 2.014 0 1 0 60.562.589L32.003 29.15 3.441.59A2.015 2.015 0 0 0 .593 3.439l28.348 28.347z"/></symbol><symbol viewBox="0 0 86.001 86.001" id="chevron-left" fill="#FF6D00" xmlns="http://www.w3.org/2000/svg"><path d="M64.998 80.095a3.484 3.484 0 0 1 0 4.893 3.401 3.401 0 0 1-4.844 0l-39.151-39.54a3.486 3.486 0 0 1 0-4.895l39.15-39.539a3.4 3.4 0 0 1 4.844 0A3.487 3.487 0 0 1 65 5.907L29.294 43.001l35.704 37.094z"/></symbol><symbol viewBox="0 0 238.003 238.003" id="chevron-right" fill="#FF6D00" xmlns="http://www.w3.org/2000/svg"><path d="M181.776 107.719L78.705 4.648c-6.198-6.198-16.273-6.198-22.47 0s-6.198 16.273 0 22.47l91.883 91.883-91.883 91.883c-6.198 6.198-6.198 16.273 0 22.47s16.273 6.198 22.47 0l103.071-103.039a15.741 15.741 0 0 0 4.64-11.283c0-4.13-1.526-8.199-4.64-11.313z"/></symbol><symbol viewBox="0 0 54.757 54.757" id="location" xmlns="http://www.w3.org/2000/svg"><path d="M27.557 12c-3.859 0-7 3.141-7 7s3.141 7 7 7 7-3.141 7-7-3.141-7-7-7zm0 12c-2.757 0-5-2.243-5-5s2.243-5 5-5 5 2.243 5 5-2.243 5-5 5z"/><path d="M40.94 5.617A19.052 19.052 0 0 0 27.38 0a19.05 19.05 0 0 0-13.56 5.617c-6.703 6.702-7.536 19.312-1.804 26.952L27.38 54.757 42.721 32.6c5.755-7.671 4.922-20.281-1.781-26.983zm.159 25.814L27.38 51.243 13.639 31.4C8.44 24.468 9.185 13.08 15.235 7.031 18.479 3.787 22.792 2 27.38 2s8.901 1.787 12.146 5.031c6.05 6.049 6.795 17.437 1.573 24.4z"/></symbol><symbol viewBox="0 0 512 512" id="medal" xmlns="http://www.w3.org/2000/svg"><path d="M373.44 318.229c.981-2.304 2.027-4.331 3.243-5.547 2.88-2.859 9.643-4.907 16.192-6.891 10.88-3.307 23.232-7.04 29.44-17.771 6.123-10.581 3.221-23.04.683-34.027-1.579-6.741-3.2-13.717-2.091-17.792.96-3.733 5.931-9.003 10.304-13.653C439.083 214.165 448 204.672 448 192s-8.917-22.165-16.789-30.549c-4.373-4.651-9.323-9.92-10.304-13.632-1.088-4.075.533-11.072 2.091-17.813 2.539-10.987 5.44-23.445-.683-34.048-6.208-10.731-18.539-14.464-29.44-17.749-6.549-1.984-13.291-4.032-16.171-6.891-2.88-2.859-4.907-9.621-6.891-16.171-3.285-10.88-7.019-23.211-17.749-29.419-10.645-6.165-23.061-3.264-34.069-.704-6.741 1.557-13.696 3.179-17.792 2.091-3.733-1.003-9.003-5.952-13.653-10.325C278.166 8.917 268.672 0 256 0c-12.651 0-22.144 8.917-30.528 16.789-4.672 4.373-9.941 9.323-13.675 10.325-4.096 1.109-11.072-.533-17.792-2.091-11.029-2.56-23.467-5.44-34.069.683-10.709 6.208-14.443 18.539-17.728 29.44-1.984 6.549-4.032 13.312-6.891 16.171-2.88 2.859-9.643 4.907-16.192 6.891-10.88 3.307-23.232 7.04-29.44 17.771-6.123 10.581-3.221 23.04-.683 34.027 1.579 6.741 3.2 13.717 2.091 17.792-.96 3.733-5.931 9.003-10.304 13.653C72.918 169.835 64 179.349 64 192s8.917 22.165 16.789 30.549c4.373 4.651 9.323 9.92 10.304 13.632 1.088 4.075-.533 11.072-2.091 17.813-2.539 10.987-5.44 23.445.683 34.048 6.208 10.731 18.539 14.464 29.44 17.749 6.549 1.984 13.291 4.032 16.171 6.891 1.216 1.216 2.261 3.221 3.243 5.525L64.811 497.259a10.678 10.678 0 0 0 2.581 11.883 10.69 10.69 0 0 0 7.275 2.859c1.621 0 3.243-.363 4.779-1.152l79.787-39.893 58.859 39.232c2.709 1.792 6.101 2.24 9.195 1.28a10.62 10.62 0 0 0 6.699-6.4l23.296-62.123 20.587 61.76a10.772 10.772 0 0 0 6.677 6.72 10.645 10.645 0 0 0 9.365-1.216l58.859-39.232 79.787 39.893a10.674 10.674 0 0 0 12.032-1.706 10.675 10.675 0 0 0 2.581-11.883l-73.73-179.052zm-127.424 93.995l-27.285 72.747-52.821-35.2c-3.221-2.112-7.296-2.389-10.688-.661L95.36 479.04l54.229-131.733c2.56 4.352 5.717 8.277 10.347 10.965 10.645 6.165 23.083 3.264 34.069.704 6.72-1.557 13.675-3.221 17.792-2.091 3.733 1.003 9.003 5.952 13.653 10.325 3.008 2.816 6.229 5.653 9.6 8.277.085.405.021.811.149 1.216l11.477 34.453c-.19.385-.51.663-.66 1.068zm9.963-49.557c-4.203 0-10.432-5.845-15.936-11.008-6.784-6.4-13.824-12.992-22.741-15.381-2.88-.768-5.781-1.088-8.704-1.088-6.464 0-13.013 1.536-19.392 3.008-6.827 1.6-15.275 3.563-18.56 1.621-3.435-1.984-5.867-10.027-8.021-17.131-2.731-9.067-5.547-18.432-12.224-25.088-6.656-6.656-16.021-9.493-25.088-12.224-7.104-2.133-15.147-4.565-17.152-8-1.899-3.307.064-11.755 1.643-18.56 2.155-9.301 4.373-18.901 1.92-28.139-2.411-8.917-9.003-15.936-15.381-22.741-5.184-5.504-11.029-11.733-11.029-15.936s5.867-10.432 11.029-15.936c6.379-6.784 12.992-13.824 15.381-22.741 2.453-9.216.235-18.816-1.92-28.117-1.579-6.805-3.541-15.253-1.643-18.539 2.005-3.435 10.048-5.867 17.173-8.021 9.067-2.731 18.411-5.568 25.088-12.224 6.635-6.635 9.472-16.021 12.224-25.067 2.155-7.104 4.587-15.168 8-17.152 3.349-1.877 11.776.064 18.539 1.643 9.259 2.155 18.837 4.395 28.117 1.92 8.917-2.389 15.957-9.003 22.763-15.381 5.483-5.163 11.712-11.008 15.915-11.008 4.203 0 10.432 5.845 15.936 11.008 6.784 6.4 13.824 12.992 22.741 15.381 9.259 2.475 18.859.235 28.096-1.92 6.805-1.6 15.275-3.541 18.56-1.621 3.435 1.984 5.867 10.027 8.021 17.131 2.731 9.067 5.547 18.432 12.224 25.088 6.656 6.656 16.021 9.493 25.088 12.224 7.104 2.133 15.147 4.565 17.152 8 1.899 3.307-.064 11.755-1.643 18.56-2.155 9.301-4.373 18.901-1.92 28.139 2.411 8.917 9.003 15.936 15.381 22.741 5.184 5.504 11.029 11.733 11.029 15.936s-5.867 10.432-11.029 15.936c-6.379 6.784-12.992 13.824-15.381 22.741-2.453 9.216-.235 18.816 1.92 28.117 1.579 6.805 3.541 15.253 1.643 18.539-2.005 3.435-10.048 5.867-17.173 8.021-9.067 2.731-18.411 5.568-25.088 12.224-6.635 6.635-9.472 16.021-12.224 25.067-2.155 7.104-4.587 15.168-8 17.152-3.285 1.899-11.755-.064-18.539-1.643-9.259-2.155-18.837-4.395-28.117-1.92-8.917 2.389-15.957 9.003-22.763 15.381-5.483 5.162-11.712 11.008-15.915 11.008zm100.779 86.464a10.607 10.607 0 0 0-10.688.661l-52.373 34.923-33.792-101.376c10.667-1.621 19.157-9.109 26.624-16.128 4.672-4.373 9.941-9.323 13.675-10.325 4.117-1.088 11.072.533 17.792 2.091 11.029 2.56 23.467 5.44 34.069-.683 4.608-2.667 7.765-6.613 10.325-10.965l54.229 131.733-59.861-29.931z"/><path d="M384 192c0-70.592-57.408-128-128-128s-128 57.408-128 128 57.408 128 128 128 128-57.408 128-128zM256 298.667c-58.816 0-106.667-47.851-106.667-106.667S197.184 85.333 256 85.333 362.667 133.184 362.667 192 314.816 298.667 256 298.667z"/></symbol><symbol viewBox="0 0 451 451" id="search" xmlns="http://www.w3.org/2000/svg"><path d="M447.05 428l-109.6-109.6c29.4-33.8 47.2-77.9 47.2-126.1C384.65 86.2 298.35 0 192.35 0 86.25 0 .05 86.3.05 192.3s86.3 192.3 192.3 192.3c48.2 0 92.3-17.8 126.1-47.2L428.05 447c2.6 2.6 6.1 4 9.5 4s6.9-1.3 9.5-4c5.2-5.2 5.2-13.8 0-19zM26.95 192.3c0-91.2 74.2-165.3 165.3-165.3 91.2 0 165.3 74.2 165.3 165.3s-74.1 165.4-165.3 165.4c-91.1 0-165.3-74.2-165.3-165.4z"/></symbol><symbol viewBox="0 0 321.2 321.2" id="shopping-bag" xmlns="http://www.w3.org/2000/svg"><path d="M306.4 313.2l-24-223.6c-.4-3.6-3.6-6.4-7.2-6.4h-44.4V69.6c0-38.4-31.2-69.6-69.6-69.6-38.4 0-69.6 31.2-69.6 69.6v13.6H46c-3.6 0-6.8 2.8-7.2 6.4l-24 223.6c-.4 2 .4 4 1.6 5.6 1.2 1.6 3.2 2.4 5.2 2.4h278c2 0 4-.8 5.2-2.4 1.2-1.6 2-3.6 1.6-5.6zm-82.8-189.6c3.6 0 6.4 2.8 6.4 6.4 0 3.6-2.8 6.4-6.4 6.4-3.6 0-6.4-2.8-6.4-6.4 0-3.6 2.8-6.4 6.4-6.4zM106 69.6c0-30.4 24.8-55.2 55.2-55.2 30.4 0 55.2 24.8 55.2 55.2v13.6H106V69.6zm-7.2 54c3.6 0 6.4 2.8 6.4 6.4 0 3.6-2.8 6.4-6.4 6.4-3.6 0-6.4-2.8-6.4-6.4 0-3.6 2.8-6.4 6.4-6.4zM30 306.4L52.4 97.2h39.2v13.2c-8 2.8-13.6 10.4-13.6 19.2 0 11.2 9.2 20.4 20.4 20.4s20.4-9.2 20.4-20.4c0-8.8-5.6-16.4-13.6-19.2V97.2h110.4v13.2c-8 2.8-13.6 10.4-13.6 19.2 0 11.2 9.2 20.4 20.4 20.4s20.4-9.2 20.4-20.4c0-8.8-5.6-16.4-13.6-19.2V97.2H270l22.4 209.2H30z"/></symbol><symbol viewBox="0 0 486.569 486.569" id="shopping-cart" xmlns="http://www.w3.org/2000/svg"><path d="M146.069 320.369h268.1c30.4 0 55.2-24.8 55.2-55.2v-114c0-.2 0-.4-.1-.6 0-.2-.1-.5-.1-.7s-.1-.4-.1-.6c-.1-.2-.1-.4-.2-.7-.1-.2-.1-.4-.2-.6-.1-.2-.1-.4-.2-.6-.1-.2-.2-.4-.3-.7-.1-.2-.2-.4-.3-.5l-.3-.6c-.1-.2-.2-.3-.3-.5-.1-.2-.3-.4-.4-.6-.1-.2-.2-.3-.4-.5-.1-.2-.3-.3-.4-.5s-.3-.3-.4-.5-.3-.3-.4-.4l-.5-.5c-.2-.1-.3-.3-.5-.4-.2-.1-.4-.3-.6-.4-.2-.1-.3-.2-.5-.3s-.4-.2-.6-.4l-.6-.3-.6-.3-.6-.3c-.2-.1-.4-.1-.6-.2-.2-.1-.5-.2-.7-.2s-.4-.1-.5-.1c-.3-.1-.5-.1-.8-.1-.1 0-.2-.1-.4-.1l-339.8-46.9v-47.4c0-.5 0-1-.1-1.4 0-.1 0-.2-.1-.4 0-.3-.1-.6-.1-.9-.1-.3-.1-.5-.2-.8 0-.2-.1-.3-.1-.5l-.3-.9c0-.1-.1-.3-.1-.4-.1-.3-.2-.5-.4-.8-.1-.1-.1-.3-.2-.4-.1-.2-.2-.4-.4-.6-.1-.2-.2-.3-.3-.5s-.2-.3-.3-.5-.3-.4-.4-.6l-.3-.3-.6-.6-.3-.3c-.2-.2-.4-.4-.7-.6-.1-.1-.3-.2-.4-.3-.2-.2-.4-.3-.6-.5-.3-.2-.6-.4-.8-.5-.1-.1-.2-.1-.3-.2-.4-.2-.9-.4-1.3-.6l-73.7-31c-6.9-2.9-14.8.3-17.7 7.2s.3 14.8 7.2 17.7l65.4 27.6v295.8c0 28 21 51.2 48.1 54.7-4.9 8.2-7.8 17.8-7.8 28 0 30.1 24.5 54.5 54.5 54.5s54.5-24.5 54.5-54.5c0-10-2.7-19.5-7.5-27.5h121.4c-4.8 8.1-7.5 17.5-7.5 27.5 0 30.1 24.5 54.5 54.5 54.5s54.5-24.5 54.5-54.5-24.5-54.5-54.5-54.5h-255c-15.6 0-28.2-12.7-28.2-28.2v-36.6c8.2 4.8 17.9 7.6 28.2 7.6zm67.2 111.6c0 15.2-12.4 27.5-27.5 27.5s-27.5-12.4-27.5-27.5 12.4-27.5 27.5-27.5 27.5 12.3 27.5 27.5zm215.4 0c0 15.2-12.4 27.5-27.5 27.5s-27.5-12.4-27.5-27.5 12.4-27.5 27.5-27.5 27.5 12.3 27.5 27.5zm-14.5-138.6h-268.1c-15.6 0-28.2-12.7-28.2-28.2v-145.9l324.5 44.7v101.1c0 15.7-12.7 28.3-28.2 28.3z"/></symbol><symbol viewBox="0 0 487.6 487.6" id="wallet" xmlns="http://www.w3.org/2000/svg"><path d="M460.3 216.55h-11.6v-69.7c0-28.5-23.2-51.6-51.6-51.6h-10.7l.1-25.9c0-19.2-15.6-34.8-34.8-34.8H42.3c-23.1 0-42 18.6-42.3 41.7v342c0 19.2 15.6 34.8 34.8 34.8h362.4c28.5 0 51.6-23.2 51.6-51.6v-69.8h11.6c15 0 27.2-12.2 27.2-27.2v-60.7c-.1-15-12.3-27.2-27.3-27.2zm-418-158h309.4c5.9 0 10.8 4.8 10.8 10.7l-.1 26H42.3c-10.1 0-18.3-8.2-18.3-18.3s8.2-18.4 18.3-18.4zm382.4 342.8c0 15.2-12.4 27.6-27.6 27.6H34.7c-5.9 0-10.8-4.8-10.8-10.8v-303.1c5.6 2.7 11.8 4.2 18.4 4.2h354.8c15.2 0 27.6 12.4 27.6 27.6v69.7h-81.9c-15 0-27.2 12.2-27.2 27.2v60.7c0 15 12.2 27.2 27.2 27.2h81.9v69.7zm38.8-96.9c0 1.8-1.4 3.2-3.2 3.2H342.9c-1.8 0-3.2-1.4-3.2-3.2v-60.7c0-1.7 1.4-3.2 3.2-3.2h117.4c1.7 0 3.2 1.4 3.2 3.2v60.7z"/></symbol></svg>