<svg xmlns="http://www.w3.org/2000/svg" viewBox="0 0 48 48"><g id="surface1"><path d="M42 37c0 2.8-2.2 5-5 5H11c-2.8 0-5-2.2-5-5V11c0-2.8 2.2-5 5-5h26c2.8 0 5 2.2 5 5z" fill="#ff9800"/><path d="M26.898 30.398c1.5-.296 2.903-.898 4.102-1.699 1-.597 1.3-1.898.7-2.898-.598-1-1.9-1.301-2.9-.7-2.902 1.797-6.698 1.797-9.6 0-1-.601-2.302-.3-2.9.7-.6 1-.3 2.3.7 2.898 1.3.801 2.7 1.403 4.102 1.7l-4 4c-.801.8-.801 2.101 0 3 .398.402.898.601 1.5.601.5 0 1.097-.2 1.5-.602L24 33.5l3.898 3.898c.801.801 2.102.801 3 0 .801-.796.801-2.097 0-3l-4-4zM24 10c-3.898 0-7 3.102-7 7s3.102 7 7 7 7-3.102 7-7-3.102-7-7-7zm0 10c-1.7 0-3-1.3-3-3s1.3-3 3-3 3 1.3 3 3-1.3 3-3 3z" fill="#fff"/></g></svg>